<?xml version="1.0" encoding="UTF-8" standalone="no"?>
<!DOCTYPE svg PUBLIC "-//W3C//DTD SVG 1.1//EN"
 "http://www.w3.org/Graphics/SVG/1.1/DTD/svg11.dtd">
<!-- Generated by graphviz version 4.0.0 (0)
 -->
<!-- Title: dependency&#45;cruiser output Pages: 1 -->
<svg width="986pt" height="414pt"
 viewBox="0.00 0.00 985.50 414.00" xmlns="http://www.w3.org/2000/svg" xmlns:xlink="http://www.w3.org/1999/xlink">
<g id="graph0" class="graph" transform="scale(1 1) rotate(0) translate(4 410)">
<title>dependency&#45;cruiser output</title>
<polygon fill="white" stroke="transparent" points="-4,4 -4,-410 981.5,-410 981.5,4 -4,4"/>
<g id="clust1" class="cluster">
<title>cluster_src</title>
<path fill="#ffffff" stroke="black" stroke-width="2" d="M20,-8C20,-8 957.5,-8 957.5,-8 963.5,-8 969.5,-14 969.5,-20 969.5,-20 969.5,-386 969.5,-386 969.5,-392 963.5,-398 957.5,-398 957.5,-398 20,-398 20,-398 14,-398 8,-392 8,-386 8,-386 8,-20 8,-20 8,-14 14,-8 20,-8"/>
<text text-anchor="middle" x="488.75" y="-386.8" font-family="Helvetica,sans-Serif" font-weight="bold" font-size="9.00">src</text>
</g>
<g id="clust2" class="cluster">
<title>cluster_src/Api Doctor</title>
<path fill="#ffffff" stroke="black" stroke-width="2" d="M90,-16C90,-16 949.5,-16 949.5,-16 955.5,-16 961.5,-22 961.5,-28 961.5,-28 961.5,-304 961.5,-304 961.5,-310 955.5,-316 949.5,-316 949.5,-316 90,-316 90,-316 84,-316 78,-310 78,-304 78,-304 78,-28 78,-28 78,-22 84,-16 90,-16"/>
<text text-anchor="middle" x="519.75" y="-304.8" font-family="Helvetica,sans-Serif" font-weight="bold" font-size="9.00">Api Doctor</text>
</g>
<g id="clust3" class="cluster">
<title>cluster_src/Api Doctor/Business_Service_Handlers</title>
<path fill="#ffffff" stroke="black" stroke-width="2" d="M411.5,-78C411.5,-78 635.5,-78 635.5,-78 641.5,-78 647.5,-84 647.5,-90 647.5,-90 647.5,-208 647.5,-208 647.5,-214 641.5,-220 635.5,-220 635.5,-220 411.5,-220 411.5,-220 405.5,-220 399.5,-214 399.5,-208 399.5,-208 399.5,-90 399.5,-90 399.5,-84 405.5,-78 411.5,-78"/>
<text text-anchor="middle" x="523.5" y="-208.8" font-family="Helvetica,sans-Serif" font-weight="bold" font-size="9.00">Business_Service_Handlers</text>
</g>
<g id="clust4" class="cluster">
<title>cluster_src/Api Doctor/Controllers</title>
<path fill="#ffffff" stroke="black" stroke-width="2" d="M98,-144C98,-144 379.5,-144 379.5,-144 385.5,-144 391.5,-150 391.5,-156 391.5,-156 391.5,-278 391.5,-278 391.5,-284 385.5,-290 379.5,-290 379.5,-290 98,-290 98,-290 92,-290 86,-284 86,-278 86,-278 86,-156 86,-156 86,-150 92,-144 98,-144"/>
<text text-anchor="middle" x="238.75" y="-278.8" font-family="Helvetica,sans-Serif" font-weight="bold" font-size="9.00">Controllers</text>
</g>
<g id="clust5" class="cluster">
<title>cluster_src/Api Doctor/Controllers/doctor</title>
<path fill="#ffffff" stroke="black" stroke-width="2" d="M120,-152C120,-152 357.5,-152 357.5,-152 363.5,-152 369.5,-158 369.5,-164 369.5,-164 369.5,-192 369.5,-192 369.5,-198 363.5,-204 357.5,-204 357.5,-204 120,-204 120,-204 114,-204 108,-198 108,-192 108,-192 108,-164 108,-164 108,-158 114,-152 120,-152"/>
<text text-anchor="middle" x="238.75" y="-192.8" font-family="Helvetica,sans-Serif" font-weight="bold" font-size="9.00">doctor</text>
</g>
<g id="clust6" class="cluster">
<title>cluster_src/Api Doctor/Controllers/especialidad</title>
<path fill="#ffffff" stroke="black" stroke-width="2" d="M106,-212C106,-212 371.5,-212 371.5,-212 377.5,-212 383.5,-218 383.5,-224 383.5,-224 383.5,-252 383.5,-252 383.5,-258 377.5,-264 371.5,-264 371.5,-264 106,-264 106,-264 100,-264 94,-258 94,-252 94,-252 94,-224 94,-224 94,-218 100,-212 106,-212"/>
<text text-anchor="middle" x="238.75" y="-252.8" font-family="Helvetica,sans-Serif" font-weight="bold" font-size="9.00">especialidad</text>
</g>
<g id="clust7" class="cluster">
<title>cluster_src/Api Doctor/DB</title>
<path fill="#ffffff" stroke="black" stroke-width="2" d="M873.5,-115C873.5,-115 941.5,-115 941.5,-115 947.5,-115 953.5,-121 953.5,-127 953.5,-127 953.5,-185 953.5,-185 953.5,-191 947.5,-197 941.5,-197 941.5,-197 873.5,-197 873.5,-197 867.5,-197 861.5,-191 861.5,-185 861.5,-185 861.5,-127 861.5,-127 861.5,-121 867.5,-115 873.5,-115"/>
<text text-anchor="middle" x="907.5" y="-185.8" font-family="Helvetica,sans-Serif" font-weight="bold" font-size="9.00">DB</text>
</g>
<g id="clust8" class="cluster">
<title>cluster_src/Api Doctor/Interfaces</title>
<path fill="#ffffff" stroke="black" stroke-width="2" d="M106.5,-24C106.5,-24 237.5,-24 237.5,-24 243.5,-24 249.5,-30 249.5,-36 249.5,-36 249.5,-124 249.5,-124 249.5,-130 243.5,-136 237.5,-136 237.5,-136 106.5,-136 106.5,-136 100.5,-136 94.5,-130 94.5,-124 94.5,-124 94.5,-36 94.5,-36 94.5,-30 100.5,-24 106.5,-24"/>
<text text-anchor="middle" x="172" y="-124.8" font-family="Helvetica,sans-Serif" font-weight="bold" font-size="9.00">Interfaces</text>
</g>
<g id="clust9" class="cluster">
<title>cluster_src/Api Doctor/ORM</title>
<path fill="#ffffff" stroke="black" stroke-width="2" d="M724.5,-55C724.5,-55 784.5,-55 784.5,-55 790.5,-55 796.5,-61 796.5,-67 796.5,-67 796.5,-95 796.5,-95 796.5,-101 790.5,-107 784.5,-107 784.5,-107 724.5,-107 724.5,-107 718.5,-107 712.5,-101 712.5,-95 712.5,-95 712.5,-67 712.5,-67 712.5,-61 718.5,-55 724.5,-55"/>
<text text-anchor="middle" x="754.5" y="-95.8" font-family="Helvetica,sans-Serif" font-weight="bold" font-size="9.00">ORM</text>
</g>
<g id="clust10" class="cluster">
<title>cluster_src/Api Doctor/PostgreSQLRepository</title>
<path fill="#ffffff" stroke="black" stroke-width="2" d="M667.5,-115C667.5,-115 841.5,-115 841.5,-115 847.5,-115 853.5,-121 853.5,-127 853.5,-127 853.5,-245 853.5,-245 853.5,-251 847.5,-257 841.5,-257 841.5,-257 667.5,-257 667.5,-257 661.5,-257 655.5,-251 655.5,-245 655.5,-245 655.5,-127 655.5,-127 655.5,-121 661.5,-115 667.5,-115"/>
<text text-anchor="middle" x="754.5" y="-245.8" font-family="Helvetica,sans-Serif" font-weight="bold" font-size="9.00">PostgreSQLRepository</text>
</g>
<g id="clust11" class="cluster">
<title>cluster_src/Api Doctor/dto</title>
<path fill="#ffffff" stroke="black" stroke-width="2" d="M879,-55C879,-55 936,-55 936,-55 942,-55 948,-61 948,-67 948,-67 948,-95 948,-95 948,-101 942,-107 936,-107 936,-107 879,-107 879,-107 873,-107 867,-101 867,-95 867,-95 867,-67 867,-67 867,-61 873,-55 879,-55"/>
<text text-anchor="middle" x="907.5" y="-95.8" font-family="Helvetica,sans-Serif" font-weight="bold" font-size="9.00">dto</text>
</g>
<!-- src/Api Doctor/Business_Service_Handlers/DoctorEspecialidad_Bussiness_Service_Handlers -->
<g id="node1" class="node">
<title>src/Api Doctor/Business_Service_Handlers/DoctorEspecialidad_Bussiness_Service_Handlers</title>
<g id="a_node1"><a xlink:title="DoctorEspecialidad_Bussiness_Service_Handlers">
<path fill="#ffffcc" stroke="red" d="M629,-194C629,-194 418,-194 418,-194 415,-194 412,-191 412,-188 412,-188 412,-182 412,-182 412,-179 415,-176 418,-176 418,-176 629,-176 629,-176 632,-176 635,-179 635,-182 635,-182 635,-188 635,-188 635,-191 632,-194 629,-194"/>
<text text-anchor="start" x="420" y="-182.8" font-family="Helvetica,sans-Serif" font-size="9.00" fill="red">DoctorEspecialidad_Bussiness_Service_Handlers</text>
</a>
</g>
</g>
<!-- src/Api Doctor/Business_Service_Handlers/DoctorEspecialidad_Bussiness_Service_Handlers.ts -->
<g id="node2" class="node">
<title>src/Api Doctor/Business_Service_Handlers/DoctorEspecialidad_Bussiness_Service_Handlers.ts</title>
<g id="a_node2"><a xlink:href="src/Api Doctor/Business_Service_Handlers/DoctorEspecialidad_Bussiness_Service_Handlers.ts" xlink:title="DoctorEspecialidad_Bussiness_Service_Handlers.ts">
<path fill="#ddfeff" stroke="black" d="M633.5,-164C633.5,-164 413.5,-164 413.5,-164 410.5,-164 407.5,-161 407.5,-158 407.5,-158 407.5,-152 407.5,-152 407.5,-149 410.5,-146 413.5,-146 413.5,-146 633.5,-146 633.5,-146 636.5,-146 639.5,-149 639.5,-152 639.5,-152 639.5,-158 639.5,-158 639.5,-161 636.5,-164 633.5,-164"/>
<text text-anchor="start" x="415.5" y="-152.8" font-family="Helvetica,sans-Serif" font-size="9.00">DoctorEspecialidad_Bussiness_Service_Handlers.ts</text>
</a>
</g>
</g>
<!-- src/Api Doctor/ORM/doctor.orm.ts -->
<g id="node3" class="node">
<title>src/Api Doctor/ORM/doctor.orm.ts</title>
<g id="a_node3"><a xlink:href="src/Api Doctor/ORM/doctor.orm.ts" xlink:title="doctor.orm.ts">
<path fill="#ddfeff" stroke="black" d="M782.5,-81C782.5,-81 726.5,-81 726.5,-81 723.5,-81 720.5,-78 720.5,-75 720.5,-75 720.5,-69 720.5,-69 720.5,-66 723.5,-63 726.5,-63 726.5,-63 782.5,-63 782.5,-63 785.5,-63 788.5,-66 788.5,-69 788.5,-69 788.5,-75 788.5,-75 788.5,-78 785.5,-81 782.5,-81"/>
<text text-anchor="start" x="728.5" y="-69.8" font-family="Helvetica,sans-Serif" font-size="9.00">doctor.orm.ts</text>
</a>
</g>
</g>
<!-- src/Api Doctor/Business_Service_Handlers/DoctorEspecialidad_Bussiness_Service_Handlers.ts&#45;&gt;src/Api Doctor/ORM/doctor.orm.ts -->
<g id="edge1" class="edge">
<title>src/Api Doctor/Business_Service_Handlers/DoctorEspecialidad_Bussiness_Service_Handlers.ts&#45;&gt;src/Api Doctor/ORM/doctor.orm.ts</title>
<path fill="none" stroke="#000000" stroke-width="2" stroke-opacity="0.200000" d="M639.49,-145.89C642.29,-144.12 644.96,-142.17 647.5,-140 657.34,-131.59 646.86,-121.64 655.5,-112 670.68,-95.06 694.09,-85.15 714.23,-79.43"/>
<polygon fill="#000000" fill-opacity="0.200000" stroke="#000000" stroke-width="2" stroke-opacity="0.200000" points="714.83,-81.45 720.08,-77.86 713.74,-77.39 714.83,-81.45"/>
</g>
<!-- src/Api Doctor/PostgreSQLRepository/Buscar_Doctor_Por_Especialidad_PG.ts -->
<g id="node4" class="node">
<title>src/Api Doctor/PostgreSQLRepository/Buscar_Doctor_Por_Especialidad_PG.ts</title>
<g id="a_node4"><a xlink:href="src/Api Doctor/PostgreSQLRepository/Buscar_Doctor_Por_Especialidad_PG.ts" xlink:title="Buscar_Doctor_Por_Especialidad_PG.ts">
<path fill="#ddfeff" stroke="black" d="M839.5,-201C839.5,-201 669.5,-201 669.5,-201 666.5,-201 663.5,-198 663.5,-195 663.5,-195 663.5,-189 663.5,-189 663.5,-186 666.5,-183 669.5,-183 669.5,-183 839.5,-183 839.5,-183 842.5,-183 845.5,-186 845.5,-189 845.5,-189 845.5,-195 845.5,-195 845.5,-198 842.5,-201 839.5,-201"/>
<text text-anchor="start" x="671.5" y="-189.8" font-family="Helvetica,sans-Serif" font-size="9.00">Buscar_Doctor_Por_Especialidad_PG.ts</text>
</a>
</g>
</g>
<!-- src/Api Doctor/Business_Service_Handlers/DoctorEspecialidad_Bussiness_Service_Handlers.ts&#45;&gt;src/Api Doctor/PostgreSQLRepository/Buscar_Doctor_Por_Especialidad_PG.ts -->
<g id="edge2" class="edge">
<title>src/Api Doctor/Business_Service_Handlers/DoctorEspecialidad_Bussiness_Service_Handlers.ts&#45;&gt;src/Api Doctor/PostgreSQLRepository/Buscar_Doctor_Por_Especialidad_PG.ts</title>
<path fill="none" stroke="#000000" stroke-width="2" stroke-opacity="0.200000" d="M631.58,-164.04C637.05,-165.75 642.39,-167.72 647.5,-170 651.81,-171.93 651.22,-175.01 655.5,-177 658.62,-178.45 661.85,-179.77 665.16,-180.96"/>
<polygon fill="#000000" fill-opacity="0.200000" stroke="#000000" stroke-width="2" stroke-opacity="0.200000" points="664.83,-183.06 671.18,-182.98 666.16,-179.08 664.83,-183.06"/>
</g>
<!-- src/Api Doctor/PostgreSQLRepository/Buscar_Doctores_PG.ts -->
<g id="node5" class="node">
<title>src/Api Doctor/PostgreSQLRepository/Buscar_Doctores_PG.ts</title>
<g id="a_node5"><a xlink:href="src/Api Doctor/PostgreSQLRepository/Buscar_Doctores_PG.ts" xlink:title="Buscar_Doctores_PG.ts">
<path fill="#ddfeff" stroke="black" d="M805.5,-171C805.5,-171 703.5,-171 703.5,-171 700.5,-171 697.5,-168 697.5,-165 697.5,-165 697.5,-159 697.5,-159 697.5,-156 700.5,-153 703.5,-153 703.5,-153 805.5,-153 805.5,-153 808.5,-153 811.5,-156 811.5,-159 811.5,-159 811.5,-165 811.5,-165 811.5,-168 808.5,-171 805.5,-171"/>
<text text-anchor="start" x="705.5" y="-159.8" font-family="Helvetica,sans-Serif" font-size="9.00">Buscar_Doctores_PG.ts</text>
</a>
</g>
</g>
<!-- src/Api Doctor/Business_Service_Handlers/DoctorEspecialidad_Bussiness_Service_Handlers.ts&#45;&gt;src/Api Doctor/PostgreSQLRepository/Buscar_Doctores_PG.ts -->
<g id="edge3" class="edge">
<title>src/Api Doctor/Business_Service_Handlers/DoctorEspecialidad_Bussiness_Service_Handlers.ts&#45;&gt;src/Api Doctor/PostgreSQLRepository/Buscar_Doctores_PG.ts</title>
<path fill="none" stroke="#000000" stroke-width="2" stroke-opacity="0.200000" d="M639.67,-158.52C657.37,-159.06 675.05,-159.6 691.01,-160.09"/>
<polygon fill="#000000" fill-opacity="0.200000" stroke="#000000" stroke-width="2" stroke-opacity="0.200000" points="691.21,-162.2 697.27,-160.28 691.34,-158 691.21,-162.2"/>
</g>
<!-- src/Api Doctor/dto/doctor.dto.ts -->
<g id="node18" class="node">
<title>src/Api Doctor/dto/doctor.dto.ts</title>
<g id="a_node18"><a xlink:href="src/Api Doctor/dto/doctor.dto.ts" xlink:title="doctor.dto.ts">
<path fill="#ddfeff" stroke="black" d="M934,-81C934,-81 881,-81 881,-81 878,-81 875,-78 875,-75 875,-75 875,-69 875,-69 875,-66 878,-63 881,-63 881,-63 934,-63 934,-63 937,-63 940,-66 940,-69 940,-69 940,-75 940,-75 940,-78 937,-81 934,-81"/>
<text text-anchor="start" x="883" y="-69.8" font-family="Helvetica,sans-Serif" font-size="9.00">doctor.dto.ts</text>
</a>
</g>
</g>
<!-- src/Api Doctor/ORM/doctor.orm.ts&#45;&gt;src/Api Doctor/dto/doctor.dto.ts -->
<g id="edge11" class="edge">
<title>src/Api Doctor/ORM/doctor.orm.ts&#45;&gt;src/Api Doctor/dto/doctor.dto.ts</title>
<path fill="none" stroke="#000000" stroke-width="2" stroke-opacity="0.200000" d="M788.64,-72C812.33,-72 844.24,-72 868.89,-72"/>
<polygon fill="#000000" fill-opacity="0.200000" stroke="#000000" stroke-width="2" stroke-opacity="0.200000" points="868.99,-74.1 874.99,-72 868.99,-69.9 868.99,-74.1"/>
</g>
<!-- src/Api Doctor/DB/BD_PG.ts -->
<g id="node13" class="node">
<title>src/Api Doctor/DB/BD_PG.ts</title>
<g id="a_node13"><a xlink:href="src/Api Doctor/DB/BD_PG.ts" xlink:title="BD_PG.ts">
<path fill="#ddfeff" stroke="black" d="M929.5,-171C929.5,-171 885.5,-171 885.5,-171 882.5,-171 879.5,-168 879.5,-165 879.5,-165 879.5,-159 879.5,-159 879.5,-156 882.5,-153 885.5,-153 885.5,-153 929.5,-153 929.5,-153 932.5,-153 935.5,-156 935.5,-159 935.5,-159 935.5,-165 935.5,-165 935.5,-168 932.5,-171 929.5,-171"/>
<text text-anchor="start" x="887.5" y="-159.8" font-family="Helvetica,sans-Serif" font-size="9.00">BD_PG.ts</text>
</a>
</g>
</g>
<!-- src/Api Doctor/PostgreSQLRepository/Buscar_Doctor_Por_Especialidad_PG.ts&#45;&gt;src/Api Doctor/DB/BD_PG.ts -->
<g id="edge12" class="edge">
<title>src/Api Doctor/PostgreSQLRepository/Buscar_Doctor_Por_Especialidad_PG.ts&#45;&gt;src/Api Doctor/DB/BD_PG.ts</title>
<path fill="none" stroke="#000000" stroke-width="2" stroke-opacity="0.200000" d="M821.86,-182.98C832.48,-181.21 843.32,-179.21 853.5,-177 860.01,-175.59 866.9,-173.83 873.49,-172.02"/>
<polygon fill="#000000" fill-opacity="0.200000" stroke="#000000" stroke-width="2" stroke-opacity="0.200000" points="874.22,-174 879.43,-170.36 873.08,-169.96 874.22,-174"/>
</g>
<!-- src/Api Doctor/PostgreSQLRepository/Buscar_Doctores_PG.ts&#45;&gt;src/Api Doctor/DB/BD_PG.ts -->
<g id="edge13" class="edge">
<title>src/Api Doctor/PostgreSQLRepository/Buscar_Doctores_PG.ts&#45;&gt;src/Api Doctor/DB/BD_PG.ts</title>
<path fill="none" stroke="#000000" stroke-width="2" stroke-opacity="0.200000" d="M811.73,-162C832.34,-162 855,-162 873,-162"/>
<polygon fill="#000000" fill-opacity="0.200000" stroke="#000000" stroke-width="2" stroke-opacity="0.200000" points="873.41,-164.1 879.41,-162 873.41,-159.9 873.41,-164.1"/>
</g>
<!-- src/Api Doctor/Business_Service_Handlers/Doctor_Bussiness_Service_Handler -->
<g id="node6" class="node">
<title>src/Api Doctor/Business_Service_Handlers/Doctor_Bussiness_Service_Handler</title>
<g id="a_node6"><a xlink:title="Doctor_Bussiness_Service_Handler">
<path fill="#ffffcc" stroke="red" d="M600,-134C600,-134 447,-134 447,-134 444,-134 441,-131 441,-128 441,-128 441,-122 441,-122 441,-119 444,-116 447,-116 447,-116 600,-116 600,-116 603,-116 606,-119 606,-122 606,-122 606,-128 606,-128 606,-131 603,-134 600,-134"/>
<text text-anchor="start" x="449" y="-122.8" font-family="Helvetica,sans-Serif" font-size="9.00" fill="red">Doctor_Bussiness_Service_Handler</text>
</a>
</g>
</g>
<!-- src/Api Doctor/Business_Service_Handlers/Doctor_Bussiness_Service_Handler.ts -->
<g id="node7" class="node">
<title>src/Api Doctor/Business_Service_Handlers/Doctor_Bussiness_Service_Handler.ts</title>
<g id="a_node7"><a xlink:href="src/Api Doctor/Business_Service_Handlers/Doctor_Bussiness_Service_Handler.ts" xlink:title="Doctor_Bussiness_Service_Handler.ts">
<path fill="#ddfeff" stroke="black" d="M604,-104C604,-104 443,-104 443,-104 440,-104 437,-101 437,-98 437,-98 437,-92 437,-92 437,-89 440,-86 443,-86 443,-86 604,-86 604,-86 607,-86 610,-89 610,-92 610,-92 610,-98 610,-98 610,-101 607,-104 604,-104"/>
<text text-anchor="start" x="445" y="-92.8" font-family="Helvetica,sans-Serif" font-size="9.00">Doctor_Bussiness_Service_Handler.ts</text>
</a>
</g>
</g>
<!-- src/Api Doctor/Business_Service_Handlers/Doctor_Bussiness_Service_Handler.ts&#45;&gt;src/Api Doctor/ORM/doctor.orm.ts -->
<g id="edge4" class="edge">
<title>src/Api Doctor/Business_Service_Handlers/Doctor_Bussiness_Service_Handler.ts&#45;&gt;src/Api Doctor/ORM/doctor.orm.ts</title>
<path fill="none" stroke="#000000" stroke-width="2" stroke-opacity="0.200000" d="M610.1,-86.4C645.77,-82.82 685.44,-78.84 714,-75.97"/>
<polygon fill="#000000" fill-opacity="0.200000" stroke="#000000" stroke-width="2" stroke-opacity="0.200000" points="714.52,-78.03 720.28,-75.34 714.1,-73.85 714.52,-78.03"/>
</g>
<!-- src/Api Doctor/Business_Service_Handlers/Doctor_Bussiness_Service_Handler.ts&#45;&gt;src/Api Doctor/PostgreSQLRepository/Buscar_Doctores_PG.ts -->
<g id="edge5" class="edge">
<title>src/Api Doctor/Business_Service_Handlers/Doctor_Bussiness_Service_Handler.ts&#45;&gt;src/Api Doctor/PostgreSQLRepository/Buscar_Doctores_PG.ts</title>
<path fill="none" stroke="#000000" stroke-width="2" stroke-opacity="0.200000" d="M610.17,-91.78C623.96,-94.88 637.09,-100.5 647.5,-110 659.93,-121.34 643.25,-135.47 655.5,-147 665.23,-156.15 678.07,-161.14 691.24,-163.63"/>
<polygon fill="#000000" fill-opacity="0.200000" stroke="#000000" stroke-width="2" stroke-opacity="0.200000" points="691.04,-165.73 697.3,-164.61 691.71,-161.58 691.04,-165.73"/>
</g>
<!-- src/Api Doctor/Controllers/doctor/doctor.controller.spec.ts -->
<g id="node8" class="node">
<title>src/Api Doctor/Controllers/doctor/doctor.controller.spec.ts</title>
<g id="a_node8"><a xlink:href="src/Api Doctor/Controllers/doctor/doctor.controller.spec.ts" xlink:title="doctor.controller.spec.ts">
<path fill="#ddfeff" stroke="black" d="M222,-178C222,-178 122,-178 122,-178 119,-178 116,-175 116,-172 116,-172 116,-166 116,-166 116,-163 119,-160 122,-160 122,-160 222,-160 222,-160 225,-160 228,-163 228,-166 228,-166 228,-172 228,-172 228,-175 225,-178 222,-178"/>
<text text-anchor="start" x="124" y="-166.8" font-family="Helvetica,sans-Serif" font-size="9.00">doctor.controller.spec.ts</text>
</a>
</g>
</g>
<!-- src/Api Doctor/Controllers/doctor/doctor.controller.ts -->
<g id="node9" class="node">
<title>src/Api Doctor/Controllers/doctor/doctor.controller.ts</title>
<g id="a_node9"><a xlink:href="src/Api Doctor/Controllers/doctor/doctor.controller.ts" xlink:title="doctor.controller.ts">
<path fill="#ddfeff" stroke="black" d="M355.5,-178C355.5,-178 277.5,-178 277.5,-178 274.5,-178 271.5,-175 271.5,-172 271.5,-172 271.5,-166 271.5,-166 271.5,-163 274.5,-160 277.5,-160 277.5,-160 355.5,-160 355.5,-160 358.5,-160 361.5,-163 361.5,-166 361.5,-166 361.5,-172 361.5,-172 361.5,-175 358.5,-178 355.5,-178"/>
<text text-anchor="start" x="279.5" y="-166.8" font-family="Helvetica,sans-Serif" font-size="9.00">doctor.controller.ts</text>
</a>
</g>
</g>
<!-- src/Api Doctor/Controllers/doctor/doctor.controller.spec.ts&#45;&gt;src/Api Doctor/Controllers/doctor/doctor.controller.ts -->
<g id="edge6" class="edge">
<title>src/Api Doctor/Controllers/doctor/doctor.controller.spec.ts&#45;&gt;src/Api Doctor/Controllers/doctor/doctor.controller.ts</title>
<path fill="none" stroke="#000000" stroke-width="2" stroke-opacity="0.200000" d="M228.09,-169C240.23,-169 253.03,-169 264.98,-169"/>
<polygon fill="#000000" fill-opacity="0.200000" stroke="#000000" stroke-width="2" stroke-opacity="0.200000" points="265.14,-171.1 271.14,-169 265.14,-166.9 265.14,-171.1"/>
</g>
<!-- src/Api Doctor/Controllers/doctor/doctor.controller.ts&#45;&gt;src/Api Doctor/Business_Service_Handlers/DoctorEspecialidad_Bussiness_Service_Handlers -->
<g id="edge8" class="edge">
<title>src/Api Doctor/Controllers/doctor/doctor.controller.ts&#45;&gt;src/Api Doctor/Business_Service_Handlers/DoctorEspecialidad_Bussiness_Service_Handlers</title>
<path fill="none" stroke="#000000" stroke-width="2" stroke-opacity="0.200000" d="M361.73,-172.45C374.93,-173.48 390.05,-174.66 405.63,-175.88"/>
<polygon fill="#000000" fill-opacity="0.200000" stroke="#000000" stroke-width="2" stroke-opacity="0.200000" points="405.71,-177.99 411.85,-176.36 406.04,-173.8 405.71,-177.99"/>
</g>
<!-- src/Api Doctor/Controllers/doctor/doctor.controller.ts&#45;&gt;src/Api Doctor/Business_Service_Handlers/Doctor_Bussiness_Service_Handler -->
<g id="edge7" class="edge">
<title>src/Api Doctor/Controllers/doctor/doctor.controller.ts&#45;&gt;src/Api Doctor/Business_Service_Handlers/Doctor_Bussiness_Service_Handler</title>
<path fill="none" stroke="#000000" stroke-width="2" stroke-opacity="0.200000" d="M339.04,-159.92C355.36,-153.41 378.48,-144.94 399.5,-140 410.74,-137.36 422.66,-135.17 434.5,-133.35"/>
<polygon fill="#000000" fill-opacity="0.200000" stroke="#000000" stroke-width="2" stroke-opacity="0.200000" points="435.05,-135.4 440.68,-132.44 434.44,-131.24 435.05,-135.4"/>
</g>
<!-- src/Api Doctor/Controllers/especialidad/especialidad.controller.spec.ts -->
<g id="node10" class="node">
<title>src/Api Doctor/Controllers/especialidad/especialidad.controller.spec.ts</title>
<g id="a_node10"><a xlink:href="src/Api Doctor/Controllers/especialidad/especialidad.controller.spec.ts" xlink:title="especialidad.controller.spec.ts">
<path fill="#ddfeff" stroke="black" d="M236,-238C236,-238 108,-238 108,-238 105,-238 102,-235 102,-232 102,-232 102,-226 102,-226 102,-223 105,-220 108,-220 108,-220 236,-220 236,-220 239,-220 242,-223 242,-226 242,-226 242,-232 242,-232 242,-235 239,-238 236,-238"/>
<text text-anchor="start" x="110" y="-226.8" font-family="Helvetica,sans-Serif" font-size="9.00">especialidad.controller.spec.ts</text>
</a>
</g>
</g>
<!-- src/Api Doctor/Controllers/especialidad/especialidad.controller.ts -->
<g id="node11" class="node">
<title>src/Api Doctor/Controllers/especialidad/especialidad.controller.ts</title>
<g id="a_node11"><a xlink:href="src/Api Doctor/Controllers/especialidad/especialidad.controller.ts" xlink:title="especialidad.controller.ts">
<path fill="#ddfeff" stroke="black" d="M369.5,-238C369.5,-238 263.5,-238 263.5,-238 260.5,-238 257.5,-235 257.5,-232 257.5,-232 257.5,-226 257.5,-226 257.5,-223 260.5,-220 263.5,-220 263.5,-220 369.5,-220 369.5,-220 372.5,-220 375.5,-223 375.5,-226 375.5,-226 375.5,-232 375.5,-232 375.5,-235 372.5,-238 369.5,-238"/>
<text text-anchor="start" x="265.5" y="-226.8" font-family="Helvetica,sans-Serif" font-size="9.00">especialidad.controller.ts</text>
</a>
</g>
</g>
<!-- src/Api Doctor/Controllers/especialidad/especialidad.controller.spec.ts&#45;&gt;src/Api Doctor/Controllers/especialidad/especialidad.controller.ts -->
<g id="edge9" class="edge">
<title>src/Api Doctor/Controllers/especialidad/especialidad.controller.spec.ts&#45;&gt;src/Api Doctor/Controllers/especialidad/especialidad.controller.ts</title>
<path fill="none" stroke="#000000" stroke-width="2" stroke-opacity="0.200000" d="M242.16,-229C245.19,-229 248.23,-229 251.25,-229"/>
<polygon fill="#000000" fill-opacity="0.200000" stroke="#000000" stroke-width="2" stroke-opacity="0.200000" points="251.42,-231.1 257.42,-229 251.42,-226.9 251.42,-231.1"/>
</g>
<!-- src/Api Doctor/PostgreSQLRepository/Buscar_Especialidades_PG -->
<g id="node12" class="node">
<title>src/Api Doctor/PostgreSQLRepository/Buscar_Especialidades_PG</title>
<g id="a_node12"><a xlink:title="Buscar_Especialidades_PG">
<path fill="#ffffcc" stroke="red" d="M814,-231C814,-231 695,-231 695,-231 692,-231 689,-228 689,-225 689,-225 689,-219 689,-219 689,-216 692,-213 695,-213 695,-213 814,-213 814,-213 817,-213 820,-216 820,-219 820,-219 820,-225 820,-225 820,-228 817,-231 814,-231"/>
<text text-anchor="start" x="697" y="-219.8" font-family="Helvetica,sans-Serif" font-size="9.00" fill="red">Buscar_Especialidades_PG</text>
</a>
</g>
</g>
<!-- src/Api Doctor/Controllers/especialidad/especialidad.controller.ts&#45;&gt;src/Api Doctor/PostgreSQLRepository/Buscar_Especialidades_PG -->
<g id="edge10" class="edge">
<title>src/Api Doctor/Controllers/especialidad/especialidad.controller.ts&#45;&gt;src/Api Doctor/PostgreSQLRepository/Buscar_Especialidades_PG</title>
<path fill="none" stroke="#000000" stroke-width="2" stroke-opacity="0.200000" d="M375.85,-228.06C455.27,-226.79 597.29,-224.51 682.71,-223.14"/>
<polygon fill="#000000" fill-opacity="0.200000" stroke="#000000" stroke-width="2" stroke-opacity="0.200000" points="682.79,-225.24 688.76,-223.04 682.72,-221.04 682.79,-225.24"/>
</g>
<!-- src/Api Doctor/DB/ConectarPG.ts -->
<g id="node14" class="node">
<title>src/Api Doctor/DB/ConectarPG.ts</title>
<g id="a_node14"><a xlink:href="src/Api Doctor/DB/ConectarPG.ts" xlink:title="ConectarPG.ts">
<path fill="#ccffcc" stroke="black" d="M939.5,-141C939.5,-141 875.5,-141 875.5,-141 872.5,-141 869.5,-138 869.5,-135 869.5,-135 869.5,-129 869.5,-129 869.5,-126 872.5,-123 875.5,-123 875.5,-123 939.5,-123 939.5,-123 942.5,-123 945.5,-126 945.5,-129 945.5,-129 945.5,-135 945.5,-135 945.5,-138 942.5,-141 939.5,-141"/>
<text text-anchor="start" x="877.5" y="-129.8" font-family="Helvetica,sans-Serif" font-size="9.00">ConectarPG.ts</text>
</a>
</g>
</g>
<!-- src/Api Doctor/Interfaces/DoctorRepository.ts -->
<g id="node15" class="node">
<title>src/Api Doctor/Interfaces/DoctorRepository.ts</title>
<g id="a_node15"><a xlink:href="src/Api Doctor/Interfaces/DoctorRepository.ts" xlink:title="DoctorRepository.ts">
<path fill="#ccffcc" stroke="black" d="M214,-110C214,-110 130,-110 130,-110 127,-110 124,-107 124,-104 124,-104 124,-98 124,-98 124,-95 127,-92 130,-92 130,-92 214,-92 214,-92 217,-92 220,-95 220,-98 220,-98 220,-104 220,-104 220,-107 217,-110 214,-110"/>
<text text-anchor="start" x="132" y="-98.8" font-family="Helvetica,sans-Serif" font-size="9.00">DoctorRepository.ts</text>
</a>
</g>
</g>
<!-- src/Api Doctor/Interfaces/IBusiness_Service_Handler.ts -->
<g id="node16" class="node">
<title>src/Api Doctor/Interfaces/IBusiness_Service_Handler.ts</title>
<g id="a_node16"><a xlink:href="src/Api Doctor/Interfaces/IBusiness_Service_Handler.ts" xlink:title="IBusiness_Service_Handler.ts">
<path fill="#ccffcc" stroke="black" d="M235.5,-80C235.5,-80 108.5,-80 108.5,-80 105.5,-80 102.5,-77 102.5,-74 102.5,-74 102.5,-68 102.5,-68 102.5,-65 105.5,-62 108.5,-62 108.5,-62 235.5,-62 235.5,-62 238.5,-62 241.5,-65 241.5,-68 241.5,-68 241.5,-74 241.5,-74 241.5,-77 238.5,-80 235.5,-80"/>
<text text-anchor="start" x="110.5" y="-68.8" font-family="Helvetica,sans-Serif" font-size="9.00">IBusiness_Service_Handler.ts</text>
</a>
</g>
</g>
<!-- src/Api Doctor/Interfaces/Iorm.ts -->
<g id="node17" class="node">
<title>src/Api Doctor/Interfaces/Iorm.ts</title>
<g id="a_node17"><a xlink:href="src/Api Doctor/Interfaces/Iorm.ts" xlink:title="Iorm.ts">
<path fill="#ccffcc" stroke="black" d="M193,-50C193,-50 151,-50 151,-50 148,-50 145,-47 145,-44 145,-44 145,-38 145,-38 145,-35 148,-32 151,-32 151,-32 193,-32 193,-32 196,-32 199,-35 199,-38 199,-38 199,-44 199,-44 199,-47 196,-50 193,-50"/>
<text text-anchor="start" x="158" y="-38.8" font-family="Helvetica,sans-Serif" font-size="9.00">Iorm.ts</text>
</a>
</g>
</g>
<!-- src/Api Doctor/PostgreSQLRepository/Buscar_Especialidades_PG.ts -->
<g id="node19" class="node">
<title>src/Api Doctor/PostgreSQLRepository/Buscar_Especialidades_PG.ts</title>
<g id="a_node19"><a xlink:href="src/Api Doctor/PostgreSQLRepository/Buscar_Especialidades_PG.ts" xlink:title="Buscar_Especialidades_PG.ts">
<path fill="#ddfeff" stroke="black" d="M818.5,-141C818.5,-141 690.5,-141 690.5,-141 687.5,-141 684.5,-138 684.5,-135 684.5,-135 684.5,-129 684.5,-129 684.5,-126 687.5,-123 690.5,-123 690.5,-123 818.5,-123 818.5,-123 821.5,-123 824.5,-126 824.5,-129 824.5,-129 824.5,-135 824.5,-135 824.5,-138 821.5,-141 818.5,-141"/>
<text text-anchor="start" x="692.5" y="-129.8" font-family="Helvetica,sans-Serif" font-size="9.00">Buscar_Especialidades_PG.ts</text>
</a>
</g>
</g>
<!-- src/Api Doctor/PostgreSQLRepository/Buscar_Especialidades_PG.ts&#45;&gt;src/Api Doctor/DB/BD_PG.ts -->
<g id="edge14" class="edge">
<title>src/Api Doctor/PostgreSQLRepository/Buscar_Especialidades_PG.ts&#45;&gt;src/Api Doctor/DB/BD_PG.ts</title>
<path fill="none" stroke="#000000" stroke-width="2" stroke-opacity="0.200000" d="M821.86,-141.02C832.48,-142.79 843.32,-144.79 853.5,-147 860.01,-148.41 866.9,-150.17 873.49,-151.98"/>
<polygon fill="#000000" fill-opacity="0.200000" stroke="#000000" stroke-width="2" stroke-opacity="0.200000" points="873.08,-154.04 879.43,-153.64 874.22,-150 873.08,-154.04"/>
</g>
<!-- src/app.controller.spec.ts -->
<g id="node20" class="node">
<title>src/app.controller.spec.ts</title>
<g id="a_node20"><a xlink:href="src/app.controller.spec.ts" xlink:title="app.controller.spec.ts">
<path fill="#ddfeff" stroke="black" d="M217.5,-372C217.5,-372 126.5,-372 126.5,-372 123.5,-372 120.5,-369 120.5,-366 120.5,-366 120.5,-360 120.5,-360 120.5,-357 123.5,-354 126.5,-354 126.5,-354 217.5,-354 217.5,-354 220.5,-354 223.5,-357 223.5,-360 223.5,-360 223.5,-366 223.5,-366 223.5,-369 220.5,-372 217.5,-372"/>
<text text-anchor="start" x="128.5" y="-360.8" font-family="Helvetica,sans-Serif" font-size="9.00">app.controller.spec.ts</text>
</a>
</g>
</g>
<!-- src/app.controller.ts -->
<g id="node21" class="node">
<title>src/app.controller.ts</title>
<g id="a_node21"><a xlink:href="src/app.controller.ts" xlink:title="app.controller.ts">
<path fill="#ddfeff" stroke="black" d="M351,-342C351,-342 282,-342 282,-342 279,-342 276,-339 276,-336 276,-336 276,-330 276,-330 276,-327 279,-324 282,-324 282,-324 351,-324 351,-324 354,-324 357,-327 357,-330 357,-330 357,-336 357,-336 357,-339 354,-342 351,-342"/>
<text text-anchor="start" x="284" y="-330.8" font-family="Helvetica,sans-Serif" font-size="9.00">app.controller.ts</text>
</a>
</g>
</g>
<!-- src/app.controller.spec.ts&#45;&gt;src/app.controller.ts -->
<g id="edge15" class="edge">
<title>src/app.controller.spec.ts&#45;&gt;src/app.controller.ts</title>
<path fill="none" stroke="#000000" stroke-width="2" stroke-opacity="0.200000" d="M220.38,-353.94C230.03,-352.03 240.1,-349.99 249.5,-348 256.33,-346.56 263.54,-344.97 270.58,-343.4"/>
<polygon fill="#000000" fill-opacity="0.200000" stroke="#000000" stroke-width="2" stroke-opacity="0.200000" points="271.06,-345.44 276.46,-342.08 270.14,-341.34 271.06,-345.44"/>
</g>
<!-- src/app.service.ts -->
<g id="node22" class="node">
<title>src/app.service.ts</title>
<g id="a_node22"><a xlink:href="src/app.service.ts" xlink:title="app.service.ts">
<path fill="#ddfeff" stroke="black" d="M347,-372C347,-372 286,-372 286,-372 283,-372 280,-369 280,-366 280,-366 280,-360 280,-360 280,-357 283,-354 286,-354 286,-354 347,-354 347,-354 350,-354 353,-357 353,-360 353,-360 353,-366 353,-366 353,-369 350,-372 347,-372"/>
<text text-anchor="start" x="288" y="-360.8" font-family="Helvetica,sans-Serif" font-size="9.00">app.service.ts</text>
</a>
</g>
</g>
<!-- src/app.controller.spec.ts&#45;&gt;src/app.service.ts -->
<g id="edge16" class="edge">
<title>src/app.controller.spec.ts&#45;&gt;src/app.service.ts</title>
<path fill="none" stroke="#000000" stroke-width="2" stroke-opacity="0.200000" d="M223.64,-363C240.03,-363 258,-363 273.67,-363"/>
<polygon fill="#000000" fill-opacity="0.200000" stroke="#000000" stroke-width="2" stroke-opacity="0.200000" points="273.78,-365.1 279.78,-363 273.78,-360.9 273.78,-365.1"/>
</g>
<!-- src/app.module.ts -->
<g id="node23" class="node">
<title>src/app.module.ts</title>
<g id="a_node23"><a xlink:href="src/app.module.ts" xlink:title="app.module.ts">
<path fill="#ddfeff" stroke="black" d="M203,-342C203,-342 141,-342 141,-342 138,-342 135,-339 135,-336 135,-336 135,-330 135,-330 135,-327 138,-324 141,-324 141,-324 203,-324 203,-324 206,-324 209,-327 209,-330 209,-330 209,-336 209,-336 209,-339 206,-342 203,-342"/>
<text text-anchor="start" x="143" y="-330.8" font-family="Helvetica,sans-Serif" font-size="9.00">app.module.ts</text>
</a>
</g>
</g>
<!-- src/app.module.ts&#45;&gt;src/Api Doctor/Controllers/doctor/doctor.controller.ts -->
<g id="edge17" class="edge">
<title>src/app.module.ts&#45;&gt;src/Api Doctor/Controllers/doctor/doctor.controller.ts</title>
<path fill="none" stroke="#000000" stroke-width="2" stroke-opacity="0.200000" d="M189.24,-323.95C207.22,-312.98 235.51,-292.74 249.5,-267 261.93,-244.14 243.85,-231.16 257.5,-209 264.89,-197.01 277.36,-187.71 288.86,-181.11"/>
<polygon fill="#000000" fill-opacity="0.200000" stroke="#000000" stroke-width="2" stroke-opacity="0.200000" points="290.13,-182.8 294.39,-178.09 288.12,-179.12 290.13,-182.8"/>
</g>
<!-- src/app.module.ts&#45;&gt;src/Api Doctor/Controllers/especialidad/especialidad.controller.ts -->
<g id="edge18" class="edge">
<title>src/app.module.ts&#45;&gt;src/Api Doctor/Controllers/especialidad/especialidad.controller.ts</title>
<path fill="none" stroke="#000000" stroke-width="2" stroke-opacity="0.200000" d="M187.83,-323.88C205.05,-312.57 233.15,-291.73 249.5,-267 255.94,-257.27 248.89,-249.87 257.5,-242 257.6,-241.91 257.7,-241.82 257.8,-241.73"/>
<polygon fill="#000000" fill-opacity="0.200000" stroke="#000000" stroke-width="2" stroke-opacity="0.200000" points="259.13,-243.35 262.65,-238.05 256.6,-240 259.13,-243.35"/>
</g>
<!-- src/app.module.ts&#45;&gt;src/app.controller.ts -->
<g id="edge19" class="edge">
<title>src/app.module.ts&#45;&gt;src/app.controller.ts</title>
<path fill="none" stroke="#000000" stroke-width="2" stroke-opacity="0.200000" d="M209.33,-333C227.71,-333 250.2,-333 269.75,-333"/>
<polygon fill="#000000" fill-opacity="0.200000" stroke="#000000" stroke-width="2" stroke-opacity="0.200000" points="269.98,-335.1 275.98,-333 269.98,-330.9 269.98,-335.1"/>
</g>
<!-- src/app.module.ts&#45;&gt;src/app.service.ts -->
<g id="edge20" class="edge">
<title>src/app.module.ts&#45;&gt;src/app.service.ts</title>
<path fill="none" stroke="#000000" stroke-width="2" stroke-opacity="0.200000" d="M209.24,-339.88C221.98,-342.35 236.39,-345.23 249.5,-348 257.38,-349.67 265.77,-351.52 273.83,-353.33"/>
<polygon fill="#000000" fill-opacity="0.200000" stroke="#000000" stroke-width="2" stroke-opacity="0.200000" points="273.6,-355.43 279.92,-354.71 274.53,-351.34 273.6,-355.43"/>
</g>
<!-- src/main.ts -->
<g id="node24" class="node">
<title>src/main.ts</title>
<g id="a_node24"><a xlink:href="src/main.ts" xlink:title="main.ts">
<path fill="#ddfeff" stroke="black" d="M64,-342C64,-342 22,-342 22,-342 19,-342 16,-339 16,-336 16,-336 16,-330 16,-330 16,-327 19,-324 22,-324 22,-324 64,-324 64,-324 67,-324 70,-327 70,-330 70,-330 70,-336 70,-336 70,-339 67,-342 64,-342"/>
<text text-anchor="start" x="28" y="-330.8" font-family="Helvetica,sans-Serif" font-size="9.00">main.ts</text>
</a>
</g>
</g>
<!-- src/main.ts&#45;&gt;src/app.module.ts -->
<g id="edge21" class="edge">
<title>src/main.ts&#45;&gt;src/app.module.ts</title>
<path fill="none" stroke="#000000" stroke-width="2" stroke-opacity="0.200000" d="M70.01,-333C86.9,-333 109.31,-333 128.73,-333"/>
<polygon fill="#000000" fill-opacity="0.200000" stroke="#000000" stroke-width="2" stroke-opacity="0.200000" points="128.92,-335.1 134.92,-333 128.92,-330.9 128.92,-335.1"/>
</g>
</g>
</svg>
